<?xml version="1.0" encoding="utf-8" standalone="no"?>
<!DOCTYPE svg PUBLIC "-//W3C//DTD SVG 1.1//EN"
  "http://www.w3.org/Graphics/SVG/1.1/DTD/svg11.dtd">
<svg xmlns:xlink="http://www.w3.org/1999/xlink" width="432pt" height="432pt" viewBox="0 0 432 432" xmlns="http://www.w3.org/2000/svg" version="1.1">
 <metadata>
  <rdf:RDF xmlns:dc="http://purl.org/dc/elements/1.1/" xmlns:cc="http://creativecommons.org/ns#" xmlns:rdf="http://www.w3.org/1999/02/22-rdf-syntax-ns#">
   <cc:Work>
    <dc:type rdf:resource="http://purl.org/dc/dcmitype/StillImage"/>
    <dc:date>2025-09-17T07:48:04.187779</dc:date>
    <dc:format>image/svg+xml</dc:format>
    <dc:creator>
     <cc:Agent>
      <dc:title>Matplotlib v3.6.3, https://matplotlib.org/</dc:title>
     </cc:Agent>
    </dc:creator>
   </cc:Work>
  </rdf:RDF>
 </metadata>
 <defs>
  <style type="text/css">*{stroke-linejoin: round; stroke-linecap: butt}</style>
 </defs>
 <g id="figure_1">
  <g id="patch_1">
   <path d="M 0 432 
L 432 432 
L 432 0 
L 0 0 
L 0 432 
z
" style="fill: none"/>
  </g>
  <g id="axes_1">
   <g id="patch_2">
    <path d="M 143.75914 194.718107 
C 162.272048 188.236747 177.904438 175.403816 187.868094 158.508214 
C 197.83175 141.612611 201.49685 121.722343 198.20968 102.385065 
C 194.92251 83.047786 184.89086 65.485846 169.903989 52.831617 
C 154.917118 40.177388 135.922376 33.230769 116.307692 33.230769 
L 116.307692 116.307692 
L 143.75914 194.718107 
z
" style="fill: #e69f00"/>
   </g>
   <g id="patch_3">
    <path d="M 116.307692 33.230769 
C 104.220009 33.230769 92.276699 35.868904 81.313695 40.960527 
C 70.35069 46.05215 60.629873 53.475633 52.831617 62.711395 
C 45.033362 71.947158 39.343951 82.774577 36.161597 94.435825 
C 32.979243 106.097074 32.379964 118.31359 34.405705 130.23032 
C 36.431446 142.147051 41.033816 153.479331 47.890688 163.433998 
C 54.747561 173.388665 63.69514 181.727923 74.107171 187.868094 
C 84.519202 194.008266 96.146964 197.802675 108.176612 198.985747 
C 120.20626 200.168818 132.350433 198.71229 143.75914 194.718107 
L 116.307692 116.307692 
L 116.307692 33.230769 
z
" style="fill: #56b4e9"/>
   </g>
   <g id="patch_4">
    <path d="M 162 116.307692 
C 162 110.307433 160.81808 104.36552 158.52188 98.822003 
C 156.225681 93.278487 152.859857 88.241175 148.617033 83.998352 
C 144.374209 79.755528 139.336898 76.389704 133.793381 74.093504 
C 128.249865 71.797305 122.307951 70.615385 116.307692 70.615385 
C 110.307433 70.615385 104.36552 71.797305 98.822003 74.093504 
C 93.278487 76.389704 88.241175 79.755528 83.998352 83.998352 
C 79.755528 88.241175 76.389704 93.278487 74.093504 98.822003 
C 71.797305 104.36552 70.615385 110.307433 70.615385 116.307692 
C 70.615385 122.307951 71.797305 128.249865 74.093504 133.793381 
C 76.389704 139.336898 79.755528 144.374209 83.998352 148.617033 
C 88.241175 152.859857 93.278487 156.225681 98.822003 158.52188 
C 104.36552 160.81808 110.307433 162 116.307692 162 
C 122.307951 162 128.249865 160.81808 133.793381 158.52188 
C 139.336898 156.225681 144.374209 152.859857 148.617033 148.617033 
C 152.859857 144.374209 156.225681 139.336898 158.52188 133.793381 
C 160.81808 128.249865 162 122.307951 162 116.307692 
M 116.307692 116.307692 
M 162 116.307692 
z
" style="fill: #ffffff"/>
   </g>
   <g id="patch_5">
    <path d="M 298.493285 197.584803 
C 309.879929 199.994327 321.646862 199.984331 333.029395 197.555465 
C 344.411929 195.126598 355.158034 190.332641 364.569363 183.485134 
C 373.980691 176.637626 381.84886 167.888184 387.662547 157.805401 
C 393.476233 147.722618 397.106712 136.529744 398.318053 124.954161 
C 399.529393 113.378579 398.294774 101.67659 394.694429 90.608665 
C 391.094083 79.540739 385.207729 69.351939 377.417899 60.704396 
C 369.628068 52.056853 360.107241 45.142038 349.47414 40.40932 
C 338.841039 35.676601 327.331099 33.230769 315.692308 33.230769 
L 315.692308 116.307692 
L 298.493285 197.584803 
z
" style="fill: #009e73"/>
   </g>
   <g id="patch_6">
    <path d="M 315.692292 33.230769 
C 295.161901 33.230773 275.342942 40.841138 260.089003 54.582109 
C 244.835064 68.32308 235.203319 87.242338 233.066562 107.661231 
C 230.929805 128.080124 236.436122 148.583521 248.514869 165.184751 
C 260.593615 181.78598 278.407673 193.334493 298.493285 197.584803 
L 315.692308 116.307692 
L 315.692292 33.230769 
z
" style="fill: #f0e442"/>
   </g>
   <g id="patch_7">
    <path d="M 361.384615 116.307692 
C 361.384615 110.307433 360.202695 104.36552 357.906496 98.822003 
C 355.610296 93.278487 352.244472 88.241175 348.001648 83.998352 
C 343.758825 79.755528 338.721513 76.389704 333.177997 74.093504 
C 327.63448 71.797305 321.692567 70.615385 315.692308 70.615385 
C 309.692049 70.615385 303.750135 71.797305 298.206619 74.093504 
C 292.663102 76.389704 287.625791 79.755528 283.382967 83.998352 
C 279.140143 88.241175 275.774319 93.278487 273.47812 98.822003 
C 271.18192 104.36552 270 110.307433 270 116.307692 
C 270 122.307951 271.18192 128.249865 273.47812 133.793381 
C 275.774319 139.336898 279.140143 144.374209 283.382967 148.617033 
C 287.625791 152.859857 292.663102 156.225681 298.206619 158.52188 
C 303.750135 160.81808 309.692049 162 315.692308 162 
C 321.692567 162 327.63448 160.81808 333.177997 158.52188 
C 338.721513 156.225681 343.758825 152.859857 348.001648 148.617033 
C 352.244472 144.374209 355.610296 139.336898 357.906496 133.793381 
C 360.202695 128.249865 361.384615 122.307951 361.384615 116.307692 
M 315.692308 116.307692 
M 361.384615 116.307692 
z
" style="fill: #ffffff"/>
   </g>
   <g id="patch_8">
    <path d="M 101.442236 397.428428 
C 112.794634 399.493104 124.453658 399.170198 135.674375 396.480344 
C 146.895093 393.790489 157.433328 388.792219 166.61576 381.80489 
C 175.798191 374.81756 183.424998 365.993224 189.00888 355.895696 
C 194.592762 345.798167 198.012207 334.647181 199.048736 323.155208 
C 200.085264 311.663236 198.71632 300.080356 195.02937 289.146637 
C 191.34242 278.212918 185.417696 268.166289 177.633747 259.648662 
C 169.849798 251.131036 160.376013 244.327764 149.817702 239.673531 
C 139.259391 235.019298 127.846315 232.615385 116.307692 232.615385 
L 116.307692 315.692308 
L 101.442236 397.428428 
z
" style="fill: #0072b2"/>
   </g>
   <g id="patch_9">
    <path d="M 116.307708 232.615385 
C 95.572538 232.615381 75.570428 240.378314 60.264056 254.366245 
C 44.957683 268.354177 35.429317 287.578062 33.56665 308.229399 
C 31.703982 328.880737 37.638718 349.499332 50.195108 366.000372 
C 62.751498 382.501412 81.041718 393.718159 101.442236 397.428428 
L 116.307692 315.692308 
L 116.307708 232.615385 
z
" style="fill: #d55e00"/>
   </g>
   <g id="patch_10">
    <path d="M 162 315.692308 
C 162 309.692049 160.81808 303.750135 158.52188 298.206619 
C 156.225681 292.663102 152.859857 287.625791 148.617033 283.382967 
C 144.374209 279.140143 139.336898 275.774319 133.793381 273.47812 
C 128.249865 271.18192 122.307951 270 116.307692 270 
C 110.307433 270 104.36552 271.18192 98.822003 273.47812 
C 93.278487 275.774319 88.241175 279.140143 83.998352 283.382967 
C 79.755528 287.625791 76.389704 292.663102 74.093504 298.206619 
C 71.797305 303.750135 70.615385 309.692049 70.615385 315.692308 
C 70.615385 321.692567 71.797305 327.63448 74.093504 333.177997 
C 76.389704 338.721513 79.755528 343.758825 83.998352 348.001648 
C 88.241175 352.244472 93.278487 355.610296 98.822003 357.906496 
C 104.36552 360.202695 110.307433 361.384615 116.307692 361.384615 
C 122.307951 361.384615 128.249865 360.202695 133.793381 357.906496 
C 139.336898 355.610296 144.374209 352.244472 148.617033 348.001648 
C 152.859857 343.758825 156.225681 338.721513 158.52188 333.177997 
C 160.81808 327.63448 162 321.692567 162 315.692308 
M 116.307692 315.692308 
M 162 315.692308 
z
" style="fill: #ffffff"/>
   </g>
   <g id="patch_11">
    <path d="M 298.769951 397.027472 
C 310.153071 399.395811 321.907613 399.348327 333.271227 396.8881 
C 344.634841 394.427874 355.356433 389.609266 364.740646 382.744792 
C 374.124858 375.880319 381.964334 367.121658 387.750638 357.036862 
C 393.536942 346.952065 397.142219 335.763969 398.332644 324.198186 
C 399.523069 312.632403 398.272339 300.944496 394.661572 289.892491 
C 391.050804 278.840487 385.159783 268.668595 377.370575 260.036522 
C 369.581368 251.404449 360.066087 244.502931 349.441854 239.779573 
C 338.817621 235.056215 327.319192 232.615385 315.692308 232.615385 
L 315.692308 315.692308 
L 298.769951 397.027472 
z
" style="fill: #cc79a7"/>
   </g>
   <g id="patch_12">
    <path d="M 315.692308 232.615385 
C 295.137583 232.615385 275.296835 240.243798 260.036522 254.01404 
C 244.776209 267.784283 235.156479 286.739724 233.051971 307.186429 
C 230.947464 327.633135 236.504382 348.150655 248.639823 364.740646 
C 260.775264 381.330636 278.646169 392.840577 298.769951 397.027472 
L 315.692308 315.692308 
L 315.692308 232.615385 
z
"/>
   </g>
   <g id="patch_13">
    <path d="M 361.384615 315.692308 
C 361.384615 309.692049 360.202695 303.750135 357.906496 298.206619 
C 355.610296 292.663102 352.244472 287.625791 348.001648 283.382967 
C 343.758825 279.140143 338.721513 275.774319 333.177997 273.47812 
C 327.63448 271.18192 321.692567 270 315.692308 270 
C 309.692049 270 303.750135 271.18192 298.206619 273.47812 
C 292.663102 275.774319 287.625791 279.140143 283.382967 283.382967 
C 279.140143 287.625791 275.774319 292.663102 273.47812 298.206619 
C 271.18192 303.750135 270 309.692049 270 315.692308 
C 270 321.692567 271.18192 327.63448 273.47812 333.177997 
C 275.774319 338.721513 279.140143 343.758825 283.382967 348.001648 
C 287.625791 352.244472 292.663102 355.610296 298.206619 357.906496 
C 303.750135 360.202695 309.692049 361.384615 315.692308 361.384615 
C 321.692567 361.384615 327.63448 360.202695 333.177997 357.906496 
C 338.721513 355.610296 343.758825 352.244472 348.001648 348.001648 
C 352.244472 343.758825 355.610296 338.721513 357.906496 333.177997 
C 360.202695 327.63448 361.384615 321.692567 361.384615 315.692308 
M 315.692308 315.692308 
M 361.384615 315.692308 
z
" style="fill: #ffffff"/>
   </g>
  </g>
 </g>
</svg>
