<?xml version="1.0" encoding="utf-8" standalone="no"?>
<!DOCTYPE svg PUBLIC "-//W3C//DTD SVG 1.1//EN"
  "http://www.w3.org/Graphics/SVG/1.1/DTD/svg11.dtd">
<svg xmlns:xlink="http://www.w3.org/1999/xlink" width="432pt" height="432pt" viewBox="0 0 432 432" xmlns="http://www.w3.org/2000/svg" version="1.1">
 <metadata>
  <rdf:RDF xmlns:dc="http://purl.org/dc/elements/1.1/" xmlns:cc="http://creativecommons.org/ns#" xmlns:rdf="http://www.w3.org/1999/02/22-rdf-syntax-ns#">
   <cc:Work>
    <dc:type rdf:resource="http://purl.org/dc/dcmitype/StillImage"/>
    <dc:date>2025-09-17T07:50:09.588661</dc:date>
    <dc:format>image/svg+xml</dc:format>
    <dc:creator>
     <cc:Agent>
      <dc:title>Matplotlib v3.6.3, https://matplotlib.org/</dc:title>
     </cc:Agent>
    </dc:creator>
   </cc:Work>
  </rdf:RDF>
 </metadata>
 <defs>
  <style type="text/css">*{stroke-linejoin: round; stroke-linecap: butt}</style>
 </defs>
 <g id="figure_1">
  <g id="patch_1">
   <path d="M 0 432 
L 432 432 
L 432 0 
L 0 0 
L 0 432 
z
" style="fill: none"/>
  </g>
  <g id="axes_1">
   <g id="patch_2">
    <path d="M 216 99.692308 
C 225.694193 99.692308 234.992643 95.840764 241.847472 88.985934 
C 248.702302 82.131104 252.553846 72.832655 252.553846 63.138462 
C 252.553846 53.444268 248.702302 44.145819 241.847472 37.290989 
C 234.992643 30.436159 225.694193 26.584615 216 26.584615 
C 206.305807 26.584615 197.007357 30.436159 190.152528 37.290989 
C 183.297698 44.145819 179.446154 53.444268 179.446154 63.138462 
C 179.446154 72.832655 183.297698 82.131104 190.152528 88.985934 
C 197.007357 95.840764 206.305807 99.692308 216 99.692308 
L 216 99.692308 
z
" clip-path="url(#p2e68563103)" style="fill: none; stroke: #000000; stroke-width: 2.5; stroke-linejoin: miter"/>
   </g>
   <g id="patch_3">
    <path d="M 107.91057 144.464416 
C 117.604763 144.464416 126.903212 140.612872 133.758042 133.758042 
C 140.612872 126.903212 144.464416 117.604763 144.464416 107.91057 
C 144.464416 98.216376 140.612872 88.917927 133.758042 82.063097 
C 126.903212 75.208267 117.604763 71.356723 107.91057 71.356723 
C 98.216376 71.356723 88.917927 75.208267 82.063097 82.063097 
C 75.208267 88.917927 71.356723 98.216376 71.356723 107.91057 
C 71.356723 117.604763 75.208267 126.903212 82.063097 133.758042 
C 88.917927 140.612872 98.216376 144.464416 107.91057 144.464416 
L 107.91057 144.464416 
z
" clip-path="url(#p2e68563103)" style="fill: none; stroke: #000000; stroke-width: 2.5; stroke-linejoin: miter"/>
   </g>
   <g id="patch_4">
    <path d="M 63.138462 252.553846 
C 72.832655 252.553846 82.131104 248.702302 88.985934 241.847472 
C 95.840764 234.992643 99.692308 225.694193 99.692308 216 
C 99.692308 206.305807 95.840764 197.007357 88.985934 190.152528 
C 82.131104 183.297698 72.832655 179.446154 63.138462 179.446154 
C 53.444268 179.446154 44.145819 183.297698 37.290989 190.152528 
C 30.436159 197.007357 26.584615 206.305807 26.584615 216 
C 26.584615 225.694193 30.436159 234.992643 37.290989 241.847472 
C 44.145819 248.702302 53.444268 252.553846 63.138462 252.553846 
L 63.138462 252.553846 
z
" clip-path="url(#p2e68563103)" style="fill: none; stroke: #000000; stroke-width: 2.5; stroke-linejoin: miter"/>
   </g>
   <g id="patch_5">
    <path d="M 107.91057 360.643277 
C 117.604763 360.643277 126.903212 356.791733 133.758042 349.936903 
C 140.612872 343.082073 144.464416 333.783624 144.464416 324.08943 
C 144.464416 314.395237 140.612872 305.096788 133.758042 298.241958 
C 126.903212 291.387128 117.604763 287.535584 107.91057 287.535584 
C 98.216376 287.535584 88.917927 291.387128 82.063097 298.241958 
C 75.208267 305.096788 71.356723 314.395237 71.356723 324.08943 
C 71.356723 333.783624 75.208267 343.082073 82.063097 349.936903 
C 88.917927 356.791733 98.216376 360.643277 107.91057 360.643277 
L 107.91057 360.643277 
z
" clip-path="url(#p2e68563103)" style="fill: none; stroke: #000000; stroke-width: 2.5; stroke-linejoin: miter"/>
   </g>
   <g id="patch_6">
    <path d="M 216 405.415385 
C 225.694193 405.415385 234.992643 401.563841 241.847472 394.709011 
C 248.702302 387.854181 252.553846 378.555732 252.553846 368.861538 
C 252.553846 359.167345 248.702302 349.868896 241.847472 343.014066 
C 234.992643 336.159236 225.694193 332.307692 216 332.307692 
C 206.305807 332.307692 197.007357 336.159236 190.152528 343.014066 
C 183.297698 349.868896 179.446154 359.167345 179.446154 368.861538 
C 179.446154 378.555732 183.297698 387.854181 190.152528 394.709011 
C 197.007357 401.563841 206.305807 405.415385 216 405.415385 
L 216 405.415385 
z
" clip-path="url(#p2e68563103)" style="fill: none; stroke: #000000; stroke-width: 2.5; stroke-linejoin: miter"/>
   </g>
   <g id="patch_7">
    <path d="M 324.08943 360.643277 
C 333.783624 360.643277 343.082073 356.791733 349.936903 349.936903 
C 356.791733 343.082073 360.643277 333.783624 360.643277 324.08943 
C 360.643277 314.395237 356.791733 305.096788 349.936903 298.241958 
C 343.082073 291.387128 333.783624 287.535584 324.08943 287.535584 
C 314.395237 287.535584 305.096788 291.387128 298.241958 298.241958 
C 291.387128 305.096788 287.535584 314.395237 287.535584 324.08943 
C 287.535584 333.783624 291.387128 343.082073 298.241958 349.936903 
C 305.096788 356.791733 314.395237 360.643277 324.08943 360.643277 
L 324.08943 360.643277 
z
" clip-path="url(#p2e68563103)" style="fill: none; stroke: #000000; stroke-width: 2.5; stroke-linejoin: miter"/>
   </g>
   <g id="patch_8">
    <path d="M 368.861538 252.553846 
C 378.555732 252.553846 387.854181 248.702302 394.709011 241.847472 
C 401.563841 234.992643 405.415385 225.694193 405.415385 216 
C 405.415385 206.305807 401.563841 197.007357 394.709011 190.152528 
C 387.854181 183.297698 378.555732 179.446154 368.861538 179.446154 
C 359.167345 179.446154 349.868896 183.297698 343.014066 190.152528 
C 336.159236 197.007357 332.307692 206.305807 332.307692 216 
C 332.307692 225.694193 336.159236 234.992643 343.014066 241.847472 
C 349.868896 248.702302 359.167345 252.553846 368.861538 252.553846 
L 368.861538 252.553846 
z
" clip-path="url(#p2e68563103)" style="fill: none; stroke: #000000; stroke-width: 2.5; stroke-linejoin: miter"/>
   </g>
   <g id="patch_9">
    <path d="M 324.08943 144.464416 
C 333.783624 144.464416 343.082073 140.612872 349.936903 133.758042 
C 356.791733 126.903212 360.643277 117.604763 360.643277 107.91057 
C 360.643277 98.216376 356.791733 88.917927 349.936903 82.063097 
C 343.082073 75.208267 333.783624 71.356723 324.08943 71.356723 
C 314.395237 71.356723 305.096788 75.208267 298.241958 82.063097 
C 291.387128 88.917927 287.535584 98.216376 287.535584 107.91057 
C 287.535584 117.604763 291.387128 126.903212 298.241958 133.758042 
C 305.096788 140.612872 314.395237 144.464416 324.08943 144.464416 
L 324.08943 144.464416 
z
" clip-path="url(#p2e68563103)" style="fill: none; stroke: #000000; stroke-width: 2.5; stroke-linejoin: miter"/>
   </g>
   <g id="patch_10">
    <path d="M 216 275.815385 
C 231.863225 275.815385 247.07887 269.512858 258.295864 258.295864 
C 269.512858 247.07887 275.815385 231.863225 275.815385 216 
C 275.815385 200.136775 269.512858 184.92113 258.295864 173.704136 
C 247.07887 162.487142 231.863225 156.184615 216 156.184615 
C 200.136775 156.184615 184.92113 162.487142 173.704136 173.704136 
C 162.487142 184.92113 156.184615 200.136775 156.184615 216 
C 156.184615 231.863225 162.487142 247.07887 173.704136 258.295864 
C 184.92113 269.512858 200.136775 275.815385 216 275.815385 
L 216 275.815385 
z
" clip-path="url(#p2e68563103)" style="fill: none; stroke: #000000; stroke-width: 2.5; stroke-linejoin: miter"/>
   </g>
   <g id="line2d_1">
    <path d="M 216 216 
L 216 63.138462 
" clip-path="url(#p2e68563103)" style="fill: none; stroke: #e69f00; stroke-width: 2; stroke-linecap: square"/>
   </g>
   <g id="line2d_2">
    <path d="M 216 216 
L 107.91057 107.91057 
" clip-path="url(#p2e68563103)" style="fill: none; stroke: #56b4e9; stroke-width: 2; stroke-linecap: square"/>
   </g>
   <g id="line2d_3">
    <path d="M 216 216 
L 63.138462 216 
" clip-path="url(#p2e68563103)" style="fill: none; stroke: #009e73; stroke-width: 2; stroke-linecap: square"/>
   </g>
   <g id="line2d_4">
    <path d="M 216 216 
L 107.91057 324.08943 
" clip-path="url(#p2e68563103)" style="fill: none; stroke: #f0e442; stroke-width: 2; stroke-linecap: square"/>
   </g>
   <g id="line2d_5">
    <path d="M 216 216 
L 216 368.861538 
" clip-path="url(#p2e68563103)" style="fill: none; stroke: #0072b2; stroke-width: 2; stroke-linecap: square"/>
   </g>
   <g id="line2d_6">
    <path d="M 216 216 
L 324.08943 324.08943 
" clip-path="url(#p2e68563103)" style="fill: none; stroke: #d55e00; stroke-width: 2; stroke-linecap: square"/>
   </g>
   <g id="line2d_7">
    <path d="M 216 216 
L 368.861538 216 
" clip-path="url(#p2e68563103)" style="fill: none; stroke: #cc79a7; stroke-width: 2; stroke-linecap: square"/>
   </g>
   <g id="line2d_8">
    <path d="M 216 216 
L 324.08943 107.91057 
" clip-path="url(#p2e68563103)" style="fill: none; stroke: #000000; stroke-width: 2; stroke-linecap: square"/>
   </g>
   <g id="text_1">
    <!-- 1 -->
    <g style="fill: #333333" transform="translate(208.346406 69.209087) scale(0.22 -0.22)">
     <defs>
      <path id="DejaVuSans-Bold-31" d="M 750 831 
L 1813 831 
L 1813 3847 
L 722 3622 
L 722 4441 
L 1806 4666 
L 2950 4666 
L 2950 831 
L 4013 831 
L 4013 0 
L 750 0 
L 750 831 
z
" transform="scale(0.015625)"/>
     </defs>
     <use xlink:href="#DejaVuSans-Bold-31"/>
    </g>
   </g>
   <g id="text_2">
    <!-- 2 -->
    <g style="fill: #333333" transform="translate(100.256976 113.981195) scale(0.22 -0.22)">
     <defs>
      <path id="DejaVuSans-Bold-32" d="M 1844 884 
L 3897 884 
L 3897 0 
L 506 0 
L 506 884 
L 2209 2388 
Q 2438 2594 2547 2791 
Q 2656 2988 2656 3200 
Q 2656 3528 2436 3728 
Q 2216 3928 1850 3928 
Q 1569 3928 1234 3808 
Q 900 3688 519 3450 
L 519 4475 
Q 925 4609 1322 4679 
Q 1719 4750 2100 4750 
Q 2938 4750 3402 4381 
Q 3866 4013 3866 3353 
Q 3866 2972 3669 2642 
Q 3472 2313 2841 1759 
L 1844 884 
z
" transform="scale(0.015625)"/>
     </defs>
     <use xlink:href="#DejaVuSans-Bold-32"/>
    </g>
   </g>
   <g id="text_3">
    <!-- 3 -->
    <g style="fill: #333333" transform="translate(55.484868 222.070625) scale(0.22 -0.22)">
     <defs>
      <path id="DejaVuSans-Bold-33" d="M 2981 2516 
Q 3453 2394 3698 2092 
Q 3944 1791 3944 1325 
Q 3944 631 3412 270 
Q 2881 -91 1863 -91 
Q 1503 -91 1142 -33 
Q 781 25 428 141 
L 428 1069 
Q 766 900 1098 814 
Q 1431 728 1753 728 
Q 2231 728 2486 893 
Q 2741 1059 2741 1369 
Q 2741 1688 2480 1852 
Q 2219 2016 1709 2016 
L 1228 2016 
L 1228 2791 
L 1734 2791 
Q 2188 2791 2409 2933 
Q 2631 3075 2631 3366 
Q 2631 3634 2415 3781 
Q 2200 3928 1806 3928 
Q 1516 3928 1219 3862 
Q 922 3797 628 3669 
L 628 4550 
Q 984 4650 1334 4700 
Q 1684 4750 2022 4750 
Q 2931 4750 3382 4451 
Q 3834 4153 3834 3553 
Q 3834 3144 3618 2883 
Q 3403 2622 2981 2516 
z
" transform="scale(0.015625)"/>
     </defs>
     <use xlink:href="#DejaVuSans-Bold-33"/>
    </g>
   </g>
   <g id="text_4">
    <!-- 4 -->
    <g style="fill: #333333" transform="translate(100.256976 330.160055) scale(0.22 -0.22)">
     <defs>
      <path id="DejaVuSans-Bold-34" d="M 2356 3675 
L 1038 1722 
L 2356 1722 
L 2356 3675 
z
M 2156 4666 
L 3494 4666 
L 3494 1722 
L 4159 1722 
L 4159 850 
L 3494 850 
L 3494 0 
L 2356 0 
L 2356 850 
L 288 850 
L 288 1881 
L 2156 4666 
z
" transform="scale(0.015625)"/>
     </defs>
     <use xlink:href="#DejaVuSans-Bold-34"/>
    </g>
   </g>
   <g id="text_5">
    <!-- 5 -->
    <g style="fill: #333333" transform="translate(208.346406 374.932163) scale(0.22 -0.22)">
     <defs>
      <path id="DejaVuSans-Bold-35" d="M 678 4666 
L 3669 4666 
L 3669 3781 
L 1638 3781 
L 1638 3059 
Q 1775 3097 1914 3117 
Q 2053 3138 2203 3138 
Q 3056 3138 3531 2711 
Q 4006 2284 4006 1522 
Q 4006 766 3489 337 
Q 2972 -91 2053 -91 
Q 1656 -91 1267 -14 
Q 878 63 494 219 
L 494 1166 
Q 875 947 1217 837 
Q 1559 728 1863 728 
Q 2300 728 2551 942 
Q 2803 1156 2803 1522 
Q 2803 1891 2551 2103 
Q 2300 2316 1863 2316 
Q 1603 2316 1309 2248 
Q 1016 2181 678 2041 
L 678 4666 
z
" transform="scale(0.015625)"/>
     </defs>
     <use xlink:href="#DejaVuSans-Bold-35"/>
    </g>
   </g>
   <g id="text_6">
    <!-- 6 -->
    <g style="fill: #333333" transform="translate(316.435837 330.160055) scale(0.22 -0.22)">
     <defs>
      <path id="DejaVuSans-Bold-36" d="M 2316 2303 
Q 2000 2303 1842 2098 
Q 1684 1894 1684 1484 
Q 1684 1075 1842 870 
Q 2000 666 2316 666 
Q 2634 666 2792 870 
Q 2950 1075 2950 1484 
Q 2950 1894 2792 2098 
Q 2634 2303 2316 2303 
z
M 3803 4544 
L 3803 3681 
Q 3506 3822 3243 3889 
Q 2981 3956 2731 3956 
Q 2194 3956 1894 3657 
Q 1594 3359 1544 2772 
Q 1750 2925 1990 3001 
Q 2231 3078 2516 3078 
Q 3231 3078 3670 2659 
Q 4109 2241 4109 1563 
Q 4109 813 3618 361 
Q 3128 -91 2303 -91 
Q 1394 -91 895 523 
Q 397 1138 397 2266 
Q 397 3422 980 4083 
Q 1563 4744 2578 4744 
Q 2900 4744 3203 4694 
Q 3506 4644 3803 4544 
z
" transform="scale(0.015625)"/>
     </defs>
     <use xlink:href="#DejaVuSans-Bold-36"/>
    </g>
   </g>
   <g id="text_7">
    <!-- 7 -->
    <g style="fill: #333333" transform="translate(361.207945 222.070625) scale(0.22 -0.22)">
     <defs>
      <path id="DejaVuSans-Bold-37" d="M 428 4666 
L 3944 4666 
L 3944 3988 
L 2125 0 
L 953 0 
L 2675 3781 
L 428 3781 
L 428 4666 
z
" transform="scale(0.015625)"/>
     </defs>
     <use xlink:href="#DejaVuSans-Bold-37"/>
    </g>
   </g>
   <g id="text_8">
    <!-- 8 -->
    <g style="fill: #333333" transform="translate(316.435837 113.981195) scale(0.22 -0.22)">
     <defs>
      <path id="DejaVuSans-Bold-38" d="M 2228 2088 
Q 1891 2088 1709 1903 
Q 1528 1719 1528 1375 
Q 1528 1031 1709 848 
Q 1891 666 2228 666 
Q 2563 666 2741 848 
Q 2919 1031 2919 1375 
Q 2919 1722 2741 1905 
Q 2563 2088 2228 2088 
z
M 1350 2484 
Q 925 2613 709 2878 
Q 494 3144 494 3541 
Q 494 4131 934 4440 
Q 1375 4750 2228 4750 
Q 3075 4750 3515 4442 
Q 3956 4134 3956 3541 
Q 3956 3144 3739 2878 
Q 3522 2613 3097 2484 
Q 3572 2353 3814 2058 
Q 4056 1763 4056 1313 
Q 4056 619 3595 264 
Q 3134 -91 2228 -91 
Q 1319 -91 855 264 
Q 391 619 391 1313 
Q 391 1763 633 2058 
Q 875 2353 1350 2484 
z
M 1631 3419 
Q 1631 3141 1786 2991 
Q 1941 2841 2228 2841 
Q 2509 2841 2662 2991 
Q 2816 3141 2816 3419 
Q 2816 3697 2662 3845 
Q 2509 3994 2228 3994 
Q 1941 3994 1786 3844 
Q 1631 3694 1631 3419 
z
" transform="scale(0.015625)"/>
     </defs>
     <use xlink:href="#DejaVuSans-Bold-38"/>
    </g>
   </g>
  </g>
 </g>
 <defs>
  <clipPath id="p2e68563103">
   <rect x="0" y="0" width="432" height="432"/>
  </clipPath>
 </defs>
</svg>
