<?xml version="1.0" encoding="utf-8" standalone="no"?>
<!DOCTYPE svg PUBLIC "-//W3C//DTD SVG 1.1//EN"
  "http://www.w3.org/Graphics/SVG/1.1/DTD/svg11.dtd">
<svg xmlns:xlink="http://www.w3.org/1999/xlink" width="432pt" height="432pt" viewBox="0 0 432 432" xmlns="http://www.w3.org/2000/svg" version="1.1">
 <metadata>
  <rdf:RDF xmlns:dc="http://purl.org/dc/elements/1.1/" xmlns:cc="http://creativecommons.org/ns#" xmlns:rdf="http://www.w3.org/1999/02/22-rdf-syntax-ns#">
   <cc:Work>
    <dc:type rdf:resource="http://purl.org/dc/dcmitype/StillImage"/>
    <dc:date>2025-09-17T07:43:18.835618</dc:date>
    <dc:format>image/svg+xml</dc:format>
    <dc:creator>
     <cc:Agent>
      <dc:title>Matplotlib v3.6.3, https://matplotlib.org/</dc:title>
     </cc:Agent>
    </dc:creator>
   </cc:Work>
  </rdf:RDF>
 </metadata>
 <defs>
  <style type="text/css">*{stroke-linejoin: round; stroke-linecap: butt}</style>
 </defs>
 <g id="figure_1">
  <g id="patch_1">
   <path d="M 0 432 
L 432 432 
L 432 0 
L 0 0 
L 0 432 
z
" style="fill: none"/>
  </g>
  <g id="axes_1">
   <g id="line2d_1">
    <path d="M 125.693257 241.647784 
L 125.802521 239.81129 
L 126.13361 237.925386 
L 126.692475 236.006159 
L 127.486108 234.071672 
L 128.521924 232.142827 
L 129.806867 230.244186 
L 131.346297 228.404613 
L 132.870764 226.900111 
L 134.586317 225.487031 
L 136.495654 224.190752 
L 138.604984 223.047402 
L 140.521191 222.246819 
L 142.583444 221.62459 
L 144.786802 221.229781 
L 146.639427 221.119378 
L 148.550714 221.23337 
L 150.484106 221.615073 
L 151.913382 222.102425 
L 153.285173 222.776501 
L 154.553786 223.639018 
L 155.669197 224.674168 
L 156.587615 225.844637 
L 157.28498 227.095649 
L 157.765472 228.368357 
L 158.121879 230.020681 
L 158.254917 231.949954 
L 158.146214 234.804771 
L 157.822624 241.625248 
L 157.665284 243.735358 
L 157.287432 245.779311 
L 156.271802 247.375035 
L 154.663333 247.090533 
L 153.870065 246.465451 
L 153.443721 245.885269 
L 153.245626 245.389581 
L 153.216644 244.990421 
L 153.326442 244.698523 
L 153.558176 244.529931 
L 153.90208 244.511998 
L 154.350405 244.696028 
L 154.881914 245.196121 
L 155.307854 246.365607 
L 154.195881 247.824569 
L 153.089112 248.110585 
L 152.229734 248.102088 
L 151.020338 247.737999 
L 150.327015 247.160429 
L 150.085981 246.490675 
L 150.138675 246.145815 
L 150.319489 245.808913 
L 150.648528 245.497047 
L 151.162774 245.242218 
L 151.937442 245.125685 
L 153.134417 245.517337 
L 153.570073 247.352171 
L 153.063752 249.459911 
L 152.159576 251.697388 
L 150.692662 254.60243 
L 148.502682 258.349246 
L 145.49188 262.99656 
L 141.405025 268.866875 
L 134.63369 278.147006 
L 122.509011 294.753315 
L 116.674335 303.152836 
L 111.907055 310.394646 
L 107.802757 317.023992 
L 104.273035 323.13547 
L 101.175938 328.940017 
L 98.551591 334.32725 
L 96.354292 339.335513 
L 94.546153 343.994752 
L 93.095217 348.328942 
L 91.974166 352.357642 
L 91.159401 356.097035 
L 90.630383 359.560638 
L 90.373634 362.65904 
L 90.352918 365.512476 
L 90.554172 368.129099 
L 90.945726 370.429899 
L 91.519331 372.516915 
L 92.264443 374.395433 
L 93.171558 376.069831 
L 94.179641 377.479472 
L 95.315327 378.703448 
L 96.570571 379.744632 
L 97.938095 380.604996 
L 99.504249 381.320901 
L 101.196561 381.836591 
L 103.016283 382.143907 
L 104.830528 382.229967 
L 106.750367 382.10447 
L 108.787703 381.739453 
L 110.755409 381.15659 
L 112.588606 380.387518 
L 114.195614 379.489654 
L 115.440155 378.58683 
L 116.509613 377.547062 
L 116.892789 377.046827 
L 117.263162 376.375956 
L 117.432598 375.350641 
L 116.693647 374.367262 
L 115.797794 374.011576 
L 114.304879 373.813637 
L 112.487338 373.877273 
L 110.460362 374.173892 
L 107.872712 374.783833 
L 104.904687 375.718813 
L 101.662827 376.966605 
L 97.945622 378.640337 
L 93.888337 380.72638 
L 89.803734 383.075654 
L 85.509689 385.800655 
L 81.07621 388.88303 
L 76.722465 392.178485 
L 72.312566 395.798569 
L 68.031037 399.603825 
L 63.890623 403.583045 
L 59.907328 407.725209 
L 56.197687 411.904287 
L 55.807957 412.363636 
L 55.807957 412.363636 
" clip-path="url(#p58dcca63f6)" style="fill: none; stroke: #e69f00; stroke-width: 1.6; stroke-linecap: square"/>
   </g>
   <g id="line2d_2">
    <path d="M 173.012786 241.647784 
L 172.914348 242.9973 
L 172.625591 244.199023 
L 172.153279 245.238464 
L 171.50059 246.095553 
L 170.818876 246.650094 
L 170.00996 247.034141 
L 169.070309 247.211653 
L 168.221281 247.166735 
L 167.283698 246.901639 
L 166.524234 246.503148 
L 165.728958 245.84512 
L 165.205898 245.171177 
L 164.970633 244.715651 
L 164.796331 244.129812 
L 164.830077 243.337692 
L 165.589257 242.640628 
L 166.467965 242.71659 
L 167.593667 243.361567 
L 168.319051 244.092982 
L 169.038455 245.170553 
L 169.599593 246.519122 
L 169.869242 247.762341 
L 169.919463 249.177117 
L 169.728204 250.447059 
L 169.345443 251.579326 
L 168.804623 252.577917 
L 167.981518 253.601484 
L 166.999935 254.431732 
L 165.887252 255.059712 
L 164.665999 255.46827 
L 163.57845 255.621926 
L 162.436378 255.583236 
L 161.247033 255.324557 
L 160.017794 254.808635 
L 159.011886 254.174581 
L 157.994015 253.296759 
L 156.979243 252.097781 
L 156.243091 250.89459 
L 155.791298 249.865338 
L 155.440155 248.509908 
L 155.396654 247.584745 
L 155.989356 246.269351 
L 157.077863 246.515807 
L 157.488872 247.041176 
L 157.596005 247.524339 
L 157.514889 247.932413 
L 157.294871 248.255475 
L 156.961292 248.484677 
L 156.528251 248.606742 
L 156.003945 248.59896 
L 155.394878 248.418658 
L 154.718793 247.97083 
L 154.133012 246.961116 
L 154.831182 245.706209 
L 155.527411 245.424875 
L 156.363529 245.453742 
L 156.709018 245.752415 
L 156.671701 246.154873 
L 156.266809 246.5873 
L 155.437536 246.975855 
L 154.8107 247.107635 
L 153.969472 247.121251 
L 152.778966 246.708535 
L 152.225552 245.090387 
L 152.274767 243.147651 
L 152.717301 239.148015 
L 153.580967 233.446907 
L 154.56962 228.433264 
L 155.623952 224.18189 
L 156.959346 219.753331 
L 158.460855 215.54728 
L 160.257633 211.186505 
L 162.353163 206.704883 
L 164.742322 202.131841 
L 167.414607 197.491296 
L 170.543064 192.516892 
L 173.934267 187.537481 
L 177.762963 182.304869 
L 182.017328 176.863006 
L 186.876953 171.020399 
L 192.130273 165.057546 
L 197.951993 158.790648 
L 204.320131 152.26597 
L 211.402136 145.338088 
L 218.980375 138.236713 
L 227.404211 130.652512 
L 236.637415 122.646763 
L 246.644433 114.26791 
L 257.569401 105.411154 
L 269.722322 95.851538 
L 283.049491 85.658334 
L 297.670681 74.760443 
L 313.70002 63.092656 
L 331.410478 50.479913 
L 350.423065 37.215777 
L 370.54568 23.45203 
L 376.192043 19.636364 
L 376.192043 19.636364 
" clip-path="url(#p58dcca63f6)" style="fill: none; stroke: #56b4e9; stroke-width: 1.6; stroke-linecap: square"/>
   </g>
   <g id="line2d_3">
    <path d="M 155.805685 224.440683 
L 156.756469 224.573432 
L 157.789726 224.975277 
L 158.890835 225.655555 
L 160.04976 226.630808 
L 161.260984 227.929018 
L 162.524007 229.598368 
L 163.843759 231.727743 
L 164.99197 233.983116 
L 165.935645 236.271231 
L 166.622311 238.473233 
L 166.987789 240.383357 
L 167.052439 241.594196 
L 166.798346 243.110993 
L 165.4494 244.481615 
L 163.914456 244.688996 
L 161.772051 244.352485 
L 159.535252 243.623237 
L 156.837827 242.445995 
L 153.99296 240.944473 
L 151.647599 239.468765 
L 149.843598 238.070423 
L 148.451597 236.693346 
L 147.432693 235.378677 
L 146.551897 233.817165 
L 146.034586 232.460766 
L 145.696876 230.943731 
L 145.596713 229.288309 
L 145.784685 227.544475 
L 146.287147 225.78495 
L 147.095585 224.088518 
L 148.170277 222.520225 
L 149.455063 221.120104 
L 150.892768 219.903697 
L 152.434425 218.869196 
L 154.587664 217.752502 
L 156.79698 216.902233 
L 159.023262 216.281711 
L 161.794447 215.780528 
L 164.52789 215.537061 
L 167.207591 215.5114 
L 170.334759 215.72763 
L 173.346499 216.181355 
L 176.229155 216.845478 
L 178.97535 217.694314 
L 181.999817 218.882805 
L 184.821743 220.249306 
L 187.430283 221.758409 
L 189.820133 223.375254 
L 192.286548 225.312672 
L 194.483457 227.304238 
L 196.658623 229.56625 
L 198.747906 232.064217 
L 200.702755 234.756318 
L 202.490462 237.599427 
L 204.091725 240.553724 
L 205.58649 243.795964 
L 206.844156 247.065375 
L 207.872893 250.342323 
L 208.718303 253.790173 
L 209.32391 257.204921 
L 209.699638 260.585756 
L 209.852221 263.934974 
L 209.785457 267.257173 
L 209.500453 270.55873 
L 208.99583 273.847466 
L 208.267863 277.132444 
L 207.310553 280.42388 
L 206.115632 283.733116 
L 204.672492 287.072672 
L 202.968023 290.45636 
L 200.986366 293.899471 
L 198.633544 297.528711 
L 195.946305 301.253441 
L 192.896254 305.097708 
L 189.348468 309.201013 
L 185.341132 313.489379 
L 180.696037 318.123992 
L 175.436198 323.052353 
L 169.306302 328.484023 
L 162.098322 334.564557 
L 153.284652 341.697714 
L 139.618579 352.431579 
L 128.560436 361.21531 
L 123.408826 365.572597 
L 120.363709 368.388747 
L 118.369669 370.471745 
L 117.26989 371.815509 
L 116.695996 372.64747 
L 116.138149 373.692662 
L 115.831512 375.180847 
L 116.660399 376.616551 
L 117.685454 377.267576 
L 119.362196 377.927653 
L 121.929865 378.598016 
L 126.175163 379.391198 
L 142.000307 382.103607 
L 146.623562 383.195438 
L 150.551991 384.344306 
L 153.928591 385.56342 
L 156.750466 386.81698 
L 159.112323 388.105496 
L 161.079707 389.428561 
L 162.700197 390.785558 
L 163.970611 392.129051 
L 164.236629 392.457971 
L 164.236629 392.457971 
" clip-path="url(#p58dcca63f6)" style="fill: none; stroke: #009e73; stroke-width: 1.6; stroke-linecap: square"/>
   </g>
   <g id="PathCollection_1">
    <defs>
     <path id="mebe5f5f3d6" d="M -7.071068 7.071068 
L 7.071068 -7.071068 
M -7.071068 -7.071068 
L 7.071068 7.071068 
" style="stroke: #e69f00; stroke-width: 1.5"/>
    </defs>
    <g clip-path="url(#p58dcca63f6)">
     <use xlink:href="#mebe5f5f3d6" x="55.807957" y="412.363636" style="fill: #e69f00; stroke: #e69f00; stroke-width: 1.5"/>
    </g>
   </g>
   <g id="PathCollection_2">
    <defs>
     <path id="m02d67d311c" d="M -8.256368 8.256368 
L 8.256368 -8.256368 
M -8.256368 -8.256368 
L 8.256368 8.256368 
" style="stroke: #56b4e9; stroke-width: 1.5"/>
    </defs>
    <g clip-path="url(#p58dcca63f6)">
     <use xlink:href="#m02d67d311c" x="376.192043" y="19.636364" style="fill: #56b4e9; stroke: #56b4e9; stroke-width: 1.5"/>
    </g>
   </g>
   <g id="PathCollection_3">
    <defs>
     <path id="mabbcc7c628" d="M -5.849402 5.849402 
L 5.849402 -5.849402 
M -5.849402 -5.849402 
L 5.849402 5.849402 
" style="stroke: #009e73; stroke-width: 1.5"/>
    </defs>
    <g clip-path="url(#p58dcca63f6)">
     <use xlink:href="#mabbcc7c628" x="164.236629" y="392.457971" style="fill: #009e73; stroke: #009e73; stroke-width: 1.5"/>
    </g>
   </g>
  </g>
 </g>
 <defs>
  <clipPath id="p58dcca63f6">
   <rect x="39.788753" y="0" width="352.422495" height="432"/>
  </clipPath>
 </defs>
</svg>
